<?xml version="1.0" encoding="iso-8859-1"?>
<!-- Generator: Adobe Illustrator 19.0.0, SVG Export Plug-In . SVG Version: 6.00 Build 0)  -->
<svg version="1.1" id="Capa_1" xmlns="http://www.w3.org/2000/svg" xmlns:xlink="http://www.w3.org/1999/xlink" x="0px" y="0px"
	 viewBox="0 0 512 512" style="enable-background:new 0 0 512 512;" xml:space="preserve">
<path style="fill:#CDD6E0;" d="M490.667,512H21.333C9.6,512,0,502.4,0,490.667V158.933h512v331.733C512,502.4,502.4,512,490.667,512
	z"/>
<rect x="37.333" y="334.933" style="fill:#F2F2F2;" width="436.267" height="136.533"/>
<rect x="37.333" y="199.467" style="fill:#ACB3BA;" width="436.267" height="136.533"/>
<circle style="fill:#F2F2F2;" cx="388.267" cy="123.733" r="123.733"/>
<g>
	<path style="fill:#CDD6E0;" d="M437.333,37.333c-30.933-17.067-68.267-17.067-99.2,0c7.467,16,16,32,23.467,49.067
		c16-8.533,35.2-8.533,52.267,0C421.333,70.4,429.867,54.4,437.333,37.333z"/>
	<path style="fill:#CDD6E0;" d="M435.2,119.467c1.067,18.133-7.467,36.267-22.4,46.933c10.667,13.867,22.4,28.8,33.067,42.667
		c28.8-20.267,44.8-54.4,43.733-89.6C470.4,119.467,453.333,119.467,435.2,119.467z"/>
	<path style="fill:#CDD6E0;" d="M341.333,119.467c-18.133,0-36.267,0-54.4,0c-1.067,35.2,14.933,68.267,42.667,89.6
		c10.667-13.867,22.4-28.8,33.067-42.667C348.8,155.733,340.267,137.6,341.333,119.467z"/>
</g>
<circle style="fill:#40596B;" cx="388.267" cy="123.733" r="30.933"/>
<circle style="fill:#F2F2F2;" cx="123.733" cy="123.733" r="123.733"/>
<g>
	<path style="fill:#CDD6E0;" d="M172.8,37.333c-30.933-16-67.2-16-98.133,0c7.467,16,16,32,23.467,49.067
		c16-8.533,35.2-8.533,52.267,0C157.867,70.4,165.333,54.4,172.8,37.333z"/>
	<path style="fill:#CDD6E0;" d="M170.667,119.467c1.067,18.133-7.467,36.267-22.4,46.933c10.667,13.867,22.4,28.8,33.067,42.667
		c28.8-20.267,44.8-54.4,43.733-89.6C206.933,119.467,188.8,119.467,170.667,119.467z"/>
	<path style="fill:#CDD6E0;" d="M76.8,119.467c-18.133,0-36.267,0-54.4,0c-1.067,35.2,14.933,68.267,42.667,89.6
		c10.667-13.867,22.4-28.8,33.067-42.667C85.333,155.733,76.8,137.6,76.8,119.467z"/>
</g>
<circle style="fill:#40596B;" cx="123.733" cy="123.733" r="30.933"/>
<g>
	<rect x="165.333" y="379.733" style="fill:#54C0EB;" width="85.333" height="53.333"/>
	<rect x="56.533" y="379.733" style="fill:#54C0EB;" width="85.333" height="53.333"/>
</g>
<circle style="fill:#FF7058;" cx="321.067" cy="403.2" r="39.467"/>
<circle style="fill:#FFD15C;" cx="416" cy="403.2" r="39.467"/>
<g>
</g>
<g>
</g>
<g>
</g>
<g>
</g>
<g>
</g>
<g>
</g>
<g>
</g>
<g>
</g>
<g>
</g>
<g>
</g>
<g>
</g>
<g>
</g>
<g>
</g>
<g>
</g>
<g>
</g>
</svg>
